<svg width="240" height="69" viewBox="0 0 240 69" fill="none" xmlns="http://www.w3.org/2000/svg">
<path fill-rule="evenodd" clip-rule="evenodd" d="M76.7977 17.6042C80.1601 17.6042 82.8859 14.8784 82.8859 11.516C82.8859 8.15352 80.1601 5.42773 76.7977 5.42773C73.4353 5.42773 70.7095 8.15352 70.7095 11.516C70.7095 11.8825 70.7419 12.2416 70.804 12.5903H70.7046C70.6601 12.9933 70.3185 13.3067 69.9037 13.3067C69.4889 13.3067 69.1473 12.9933 69.1028 12.5903H61.7562V17.246H74.7354C75.3795 17.4778 76.0738 17.6042 76.7977 17.6042Z" fill="white"/>
<path fill-rule="evenodd" clip-rule="evenodd" d="M60.6821 19.3945C57.3197 19.3945 54.5939 22.1203 54.5939 25.4827C54.5939 28.8452 57.3197 31.571 60.6821 31.571C64.0445 31.571 66.7703 28.8452 66.7703 25.4827C66.7703 25.1162 66.7379 24.7571 66.6758 24.4084H66.7751C66.8196 24.0055 67.1612 23.692 67.576 23.692C67.9908 23.692 68.3324 24.0055 68.3769 24.4084H75.7234V19.7527H62.7444C62.1004 19.5209 61.406 19.3945 60.6821 19.3945Z" fill="white"/>
<rect x="70.7095" y="11.1582" width="0.35813" height="2.32785" fill="white"/>
<rect x="66.7701" y="25.8408" width="0.35813" height="2.32785" transform="rotate(180 66.7701 25.8408)" fill="white"/>
<circle cx="61.846" cy="12.6799" r="7.25214" fill="white"/>
<circle cx="75.6336" cy="24.3191" r="7.25214" transform="rotate(180 75.6336 24.3191)" fill="white"/>
<path d="M96.0568 8.2627V15.6564C97.1331 14.5801 98.6306 13.925 100.619 13.925C104.808 13.925 107.124 17.5516 107.124 22.0206V29.6015H101.742V22.0206C101.742 20.102 101.462 18.2536 99.2389 18.2536C97.0161 18.2536 96.1036 20.0084 96.0568 21.8802V29.6015H90.6753V8.2627H96.0568Z" fill="white"/>
<path d="M116.228 13.925C118.334 13.925 119.925 14.6737 121.025 15.8904V14.3929H126.172V29.6015H121.025V28.1041C119.925 29.3208 118.334 30.0695 116.228 30.0695C112.04 30.0695 109.022 26.4428 109.022 21.9972C109.022 17.5282 112.04 13.925 116.228 13.925ZM117.609 25.7877C119.878 25.7877 120.791 23.9393 120.791 22.0206V21.8802C120.744 20.0084 119.808 18.2536 117.609 18.2536C115.386 18.2536 114.403 20.102 114.403 22.0206C114.403 23.9393 115.386 25.7877 117.609 25.7877Z" fill="white"/>
<path d="M144.516 23.4245H133.612C133.987 24.9454 135.016 25.8813 136.467 25.8813C137.707 25.8813 138.643 25.3431 138.924 24.4072H144.563C143.673 27.6595 141.029 30.0929 136.49 30.0929C130.992 30.0929 128.067 26.4896 128.067 22.0206C128.067 17.5282 130.851 13.925 136.35 13.925C141.848 13.925 144.633 17.5282 144.633 22.0206C144.633 22.512 144.586 22.9565 144.516 23.4245ZM136.35 17.9962C134.969 17.9962 134.104 18.8385 133.706 20.0552H138.97C138.573 18.8385 137.73 17.9962 136.35 17.9962Z" fill="white"/>
<path d="M158.301 18.6981H154.604C152.99 18.6981 151.914 19.7744 151.914 21.3889V29.6015H146.532V21.4123C146.532 17.2007 149.34 14.3929 153.552 14.3929H158.301V18.6981Z" fill="white"/>
<path d="M168.035 25.2963H170.492V29.6015H166.398C163.59 29.6015 161.718 27.7297 161.718 24.922V18.6045H159.495V14.2993H161.718V10.4855H167.099V14.2993H170.492V18.6045H167.099V24.3604C167.099 24.922 167.474 25.2963 168.035 25.2963Z" fill="white"/>
<path d="M186.289 29.6015H172.039V25.9983L178.965 18.6981H172.156V14.3929H186.055V18.2302L179.433 25.2963H186.289V29.6015Z" fill="white"/>
<path d="M3.456 64.368C2.93333 64.368 2.416 64.2507 1.904 64.016C1.40267 63.7813 0.976 63.4613 0.624 63.056C0.282667 62.64 0.08 62.176 0.016 61.664L0.832 61.392C0.949333 62.0427 1.264 62.5547 1.776 62.928C2.288 63.3013 2.85867 63.488 3.488 63.488C4.01067 63.488 4.50133 63.3653 4.96 63.12C5.41867 62.864 5.78133 62.5173 6.048 62.08C6.32533 61.6427 6.464 61.152 6.464 60.608C6.464 60.2133 6.34667 59.8773 6.112 59.6C5.888 59.312 5.50933 59.024 4.976 58.736C4.19733 58.32 3.60533 57.984 3.2 57.728C2.79467 57.472 2.45867 57.1733 2.192 56.832C1.936 56.4907 1.808 56.0907 1.808 55.632C1.808 55.0667 1.96267 54.5653 2.272 54.128C2.58133 53.6907 2.98133 53.3547 3.472 53.12C3.97333 52.8747 4.50133 52.752 5.056 52.752C5.67467 52.752 6.19733 52.912 6.624 53.232C7.05067 53.552 7.264 53.952 7.264 54.432C7.264 54.4853 7.25333 54.576 7.232 54.704L6.368 54.592C6.41067 54.2827 6.288 54.048 6 53.888C5.712 53.7173 5.376 53.632 4.992 53.632C4.608 53.632 4.24 53.7173 3.888 53.888C3.54667 54.0587 3.26933 54.288 3.056 54.576C2.84267 54.864 2.736 55.1787 2.736 55.52C2.736 55.9787 2.91733 56.3627 3.28 56.672C3.64267 56.9813 4.15467 57.312 4.816 57.664C5.02933 57.7707 5.24267 57.888 5.456 58.016C6.13867 58.4 6.62933 58.8 6.928 59.216C7.23733 59.6213 7.392 60.0907 7.392 60.624C7.392 60.7093 7.38133 60.8587 7.36 61.072C7.27467 61.712 7.03467 62.2827 6.64 62.784C6.256 63.2853 5.78133 63.6747 5.216 63.952C4.65067 64.2293 4.064 64.368 3.456 64.368ZM10.7233 64.224C10.0726 64.224 9.58192 64.0693 9.25125 63.76C8.92058 63.4507 8.75525 62.9707 8.75525 62.32C8.75525 62.1173 8.77125 61.8987 8.80325 61.664L9.81125 54H10.7393L10.4833 56H12.9153L12.8033 56.864H10.3553L9.71525 61.728C9.69392 61.9627 9.68325 62.1173 9.68325 62.192C9.68325 62.672 9.77925 62.9867 9.97125 63.136C10.1739 63.2853 10.4299 63.36 10.7393 63.36C10.9526 63.36 11.1339 63.344 11.2833 63.312C11.4433 63.28 11.6193 63.2107 11.8113 63.104L12.1793 63.872C11.7846 64.1067 11.2993 64.224 10.7233 64.224ZM12.8395 67.392C13.1062 67.392 13.3568 67.36 13.5915 67.296C13.8368 67.232 14.0395 67.1413 14.1995 67.024C14.3595 66.9387 14.5088 66.8107 14.6475 66.64C14.7862 66.48 14.9035 66.2987 14.9995 66.096L15.8475 64.208L13.5435 55.952H14.5035L16.3595 63.024L19.3355 55.952H20.3115L15.7835 66.416C15.5275 66.992 15.1755 67.4347 14.7275 67.744C14.2368 68.032 13.6288 68.176 12.9035 68.176L12.8395 67.392ZM22.0385 52.384H22.9665L21.4305 64H20.5025L22.0385 52.384ZM24.4367 60.368C24.4047 60.752 24.3887 60.9813 24.3887 61.056C24.3887 61.6853 24.5434 62.2187 24.8527 62.656C25.1621 63.0933 25.7327 63.312 26.5647 63.312C27.0234 63.312 27.4447 63.2533 27.8287 63.136C28.2234 63.008 28.6661 62.8107 29.1567 62.544L29.5087 63.248C29.0607 63.536 28.5754 63.7653 28.0527 63.936C27.5301 64.096 27.0074 64.176 26.4847 64.176C25.5141 64.176 24.7674 63.888 24.2447 63.312C23.7327 62.736 23.4767 61.9573 23.4767 60.976C23.4767 60.7307 23.4927 60.4747 23.5247 60.208C23.6207 59.4613 23.8447 58.7573 24.1967 58.096C24.5487 57.4347 25.0074 56.9013 25.5727 56.496C26.1487 56.08 26.7941 55.872 27.5087 55.872C28.0634 55.872 28.5541 56 28.9807 56.256C29.4181 56.5013 29.7594 56.848 30.0047 57.296C30.2501 57.7333 30.3727 58.2293 30.3727 58.784C30.3727 58.88 30.3621 59.0347 30.3407 59.248C30.3087 59.472 30.2607 59.712 30.1967 59.968C30.1861 60.032 30.1594 60.1653 30.1167 60.368H24.4367ZM29.3647 59.44L29.4287 59.104C29.4394 59.0293 29.4447 58.9173 29.4447 58.768C29.4447 58.1813 29.2581 57.696 28.8847 57.312C28.5114 56.928 28.0367 56.736 27.4607 56.736C26.8207 56.736 26.2394 56.9813 25.7167 57.472C25.1941 57.952 24.8207 58.6293 24.5967 59.504L29.3647 59.44ZM39.6884 53.952H36.0564L36.1844 53.056H44.3764L44.2644 53.952H40.6324L39.3044 64H38.3764L39.6884 53.952ZM46.8271 52.384L46.1871 57.152C46.5711 56.704 46.9818 56.3733 47.4191 56.16C47.8671 55.9467 48.3685 55.84 48.9231 55.84C49.6698 55.84 50.2298 56.0267 50.6031 56.4C50.9765 56.7627 51.1631 57.28 51.1631 57.952C51.1631 58.048 51.1525 58.224 51.1311 58.48L50.4111 64H49.4671L50.1871 58.592C50.2085 58.4 50.2191 58.2613 50.2191 58.176C50.2191 57.7173 50.1018 57.3653 49.8671 57.12C49.6325 56.864 49.2751 56.736 48.7951 56.736C48.2938 56.736 47.8245 56.8747 47.3871 57.152C46.9605 57.4187 46.5178 57.8187 46.0591 58.352L45.2911 64H44.3631L45.8991 52.384H46.8271ZM55.2497 64.16C54.3111 64.16 53.5911 63.8453 53.0897 63.216C52.5884 62.576 52.3377 61.7653 52.3377 60.784C52.3377 60.528 52.3537 60.272 52.3857 60.016C52.4924 59.2053 52.7377 58.4853 53.1217 57.856C53.5164 57.2267 54.0231 56.7413 54.6417 56.4C55.2604 56.048 55.9537 55.872 56.7217 55.872C57.2977 55.872 57.9217 55.92 58.5937 56.016H59.5377L58.7857 61.728C58.7644 61.984 58.7537 62.1707 58.7537 62.288C58.7537 62.8533 58.8817 63.296 59.1377 63.616L58.4977 64.112C58.3057 63.9307 58.1404 63.6853 58.0017 63.376C57.8631 63.056 57.8044 62.8107 57.8257 62.64C57.5164 63.088 57.1271 63.456 56.6577 63.744C56.1991 64.0213 55.7297 64.16 55.2497 64.16ZM55.2977 63.296C55.7884 63.296 56.2311 63.1787 56.6257 62.944C57.0311 62.6987 57.3511 62.3733 57.5857 61.968C57.7991 61.6587 57.9217 61.3227 57.9537 60.96L58.5297 56.8L57.5697 56.768L56.6417 56.736C55.7244 56.736 54.9724 57.0507 54.3857 57.68C53.7991 58.2987 53.4417 59.0987 53.3137 60.08C53.2817 60.3147 53.2657 60.544 53.2657 60.768C53.2657 61.504 53.4364 62.112 53.7777 62.592C54.1191 63.0613 54.6257 63.296 55.2977 63.296ZM62.8195 64.224C62.1688 64.224 61.6782 64.0693 61.3475 63.76C61.0168 63.4507 60.8515 62.9707 60.8515 62.32C60.8515 62.1173 60.8675 61.8987 60.8995 61.664L61.9075 54H62.8355L62.5795 56H65.0115L64.8995 56.864H62.4515L61.8115 61.728C61.7902 61.9627 61.7795 62.1173 61.7795 62.192C61.7795 62.672 61.8755 62.9867 62.0675 63.136C62.2702 63.2853 62.5262 63.36 62.8355 63.36C63.0488 63.36 63.2302 63.344 63.3795 63.312C63.5395 63.28 63.7155 63.2107 63.9075 63.104L64.2755 63.872C63.8808 64.1067 63.3955 64.224 62.8195 64.224ZM72.6391 64.368C72.1165 64.368 71.5991 64.2507 71.0871 64.016C70.5858 63.7813 70.1591 63.4613 69.8071 63.056C69.4658 62.64 69.2631 62.176 69.1991 61.664L70.0151 61.392C70.1325 62.0427 70.4471 62.5547 70.9591 62.928C71.4711 63.3013 72.0418 63.488 72.6711 63.488C73.1938 63.488 73.6845 63.3653 74.1431 63.12C74.6018 62.864 74.9645 62.5173 75.2311 62.08C75.5085 61.6427 75.6471 61.152 75.6471 60.608C75.6471 60.2133 75.5298 59.8773 75.2951 59.6C75.0711 59.312 74.6925 59.024 74.1591 58.736C73.3805 58.32 72.7885 57.984 72.3831 57.728C71.9778 57.472 71.6418 57.1733 71.3751 56.832C71.1191 56.4907 70.9911 56.0907 70.9911 55.632C70.9911 55.0667 71.1458 54.5653 71.4551 54.128C71.7645 53.6907 72.1645 53.3547 72.6551 53.12C73.1565 52.8747 73.6845 52.752 74.2391 52.752C74.8578 52.752 75.3805 52.912 75.8071 53.232C76.2338 53.552 76.4471 53.952 76.4471 54.432C76.4471 54.4853 76.4365 54.576 76.4151 54.704L75.5511 54.592C75.5938 54.2827 75.4711 54.048 75.1831 53.888C74.8951 53.7173 74.5591 53.632 74.1751 53.632C73.7911 53.632 73.4231 53.7173 73.0711 53.888C72.7298 54.0587 72.4525 54.288 72.2391 54.576C72.0258 54.864 71.9191 55.1787 71.9191 55.52C71.9191 55.9787 72.1005 56.3627 72.4631 56.672C72.8258 56.9813 73.3378 57.312 73.9991 57.664C74.2125 57.7707 74.4258 57.888 74.6391 58.016C75.3218 58.4 75.8125 58.8 76.1111 59.216C76.4205 59.6213 76.5751 60.0907 76.5751 60.624C76.5751 60.7093 76.5645 60.8587 76.5431 61.072C76.4578 61.712 76.2178 62.2827 75.8231 62.784C75.4391 63.2853 74.9645 63.6747 74.3991 63.952C73.8338 64.2293 73.2471 64.368 72.6391 64.368ZM81.7859 55.872C82.7245 55.872 83.4392 56.1813 83.9299 56.8C84.4312 57.4187 84.6819 58.2187 84.6819 59.2C84.6819 59.3813 84.6605 59.6533 84.6179 60.016C84.4579 61.2533 83.9939 62.256 83.2259 63.024C82.4685 63.7813 81.5032 64.16 80.3299 64.16C80.0419 64.16 79.4285 64.0907 78.4899 63.952L77.9139 68.16H77.0339L78.3299 58.336C78.3619 58.1227 78.3779 57.9307 78.3779 57.76C78.3779 57.216 78.2285 56.7947 77.9299 56.496L78.6019 55.888C78.7619 56.016 78.9059 56.192 79.0339 56.416C79.1725 56.64 79.2632 56.88 79.3059 57.136C79.8499 56.2933 80.6765 55.872 81.7859 55.872ZM80.2819 63.296C81.2632 63.296 82.0419 63.0027 82.6179 62.416C83.2045 61.8187 83.5619 61.0133 83.6899 60C83.7219 59.744 83.7379 59.4987 83.7379 59.264C83.7379 58.5067 83.5725 57.8987 83.2419 57.44C82.9112 56.9707 82.4312 56.736 81.8019 56.736C81.1939 56.736 80.6285 56.928 80.1059 57.312C79.5939 57.696 79.2739 58.1867 79.1459 58.784L78.5539 63.152C79.4925 63.248 80.0685 63.296 80.2819 63.296ZM86.5567 60.368C86.5247 60.752 86.5087 60.9813 86.5087 61.056C86.5087 61.6853 86.6634 62.2187 86.9727 62.656C87.2821 63.0933 87.8527 63.312 88.6847 63.312C89.1434 63.312 89.5647 63.2533 89.9487 63.136C90.3434 63.008 90.7861 62.8107 91.2767 62.544L91.6287 63.248C91.1807 63.536 90.6954 63.7653 90.1727 63.936C89.6501 64.096 89.1274 64.176 88.6047 64.176C87.6341 64.176 86.8874 63.888 86.3647 63.312C85.8527 62.736 85.5967 61.9573 85.5967 60.976C85.5967 60.7307 85.6127 60.4747 85.6447 60.208C85.7407 59.4613 85.9647 58.7573 86.3167 58.096C86.6687 57.4347 87.1274 56.9013 87.6927 56.496C88.2687 56.08 88.9141 55.872 89.6287 55.872C90.1834 55.872 90.6741 56 91.1007 56.256C91.5381 56.5013 91.8794 56.848 92.1247 57.296C92.3701 57.7333 92.4927 58.2293 92.4927 58.784C92.4927 58.88 92.4821 59.0347 92.4607 59.248C92.4287 59.472 92.3807 59.712 92.3167 59.968C92.3061 60.032 92.2794 60.1653 92.2367 60.368H86.5567ZM91.4847 59.44L91.5487 59.104C91.5594 59.0293 91.5647 58.9173 91.5647 58.768C91.5647 58.1813 91.3781 57.696 91.0047 57.312C90.6314 56.928 90.1567 56.736 89.5807 56.736C88.9407 56.736 88.3594 56.9813 87.8367 57.472C87.3141 57.952 86.9407 58.6293 86.7167 59.504L91.4847 59.44ZM96.361 64.16C95.4223 64.16 94.7023 63.8453 94.201 63.216C93.6997 62.576 93.449 61.7653 93.449 60.784C93.449 60.528 93.465 60.272 93.497 60.016C93.6037 59.2053 93.849 58.4853 94.233 57.856C94.6277 57.2267 95.1343 56.7413 95.753 56.4C96.3717 56.048 97.065 55.872 97.833 55.872C98.409 55.872 99.033 55.92 99.705 56.016H100.649L99.897 61.728C99.8757 61.984 99.865 62.1707 99.865 62.288C99.865 62.8533 99.993 63.296 100.249 63.616L99.609 64.112C99.417 63.9307 99.2517 63.6853 9
</svg>
