<svg width="20" height="18" viewBox="0 0 20 18" fill="none" xmlns="http://www.w3.org/2000/svg">
<g id="Group">
<path id="Vector" d="M15.7808 17.2187C15.7808 17.0114 15.679 16.8127 15.4979 16.6662C15.3168 16.5196 15.0711 16.4373 14.8149 16.4373H6.29527C5.27061 16.4373 4.28791 16.108 3.56337 15.5219C2.83882 14.9358 2.43177 14.1409 2.43177 13.312V7.33332C2.43038 6.92272 2.52967 6.51598 2.72389 6.13663C2.91812 5.75728 3.20342 5.41286 3.5633 5.1233L6.83616 2.47612C7.56059 1.89095 8.54234 1.56208 9.5661 1.56164C10.5898 1.5612 11.572 1.88923 12.2972 2.47378L15.5469 5.1233C16.0178 5.50454 16.3589 5.97768 16.5374 6.49689C16.5934 6.65941 16.5746 10.6607 16.564 12.3905C16.5634 12.4934 16.588 12.5954 16.6362 12.6906C16.6845 12.7858 16.7556 12.8724 16.8453 12.9453C16.9351 13.0182 17.0417 13.0761 17.1592 13.1156C17.2767 13.1551 17.4026 13.1754 17.5299 13.1754C17.7853 13.1754 18.0303 13.0936 18.2113 12.9478C18.3923 12.802 18.4946 12.6042 18.4957 12.3976C18.5039 10.6239 18.5121 6.40626 18.3991 6.07849C18.132 5.30065 17.6211 4.59177 16.916 4.02044L13.6659 1.37092C12.5782 0.493026 11.1044 0 9.5679 0C8.0314 0 6.55764 0.493026 5.46993 1.37092L2.19755 4.01849C1.65766 4.45274 1.22963 4.96933 0.938248 5.53833C0.646864 6.10732 0.497913 6.71743 0.500022 7.33332V13.312C0.500022 14.5553 1.11059 15.7477 2.19741 16.6269C3.28423 17.5061 4.75828 18 6.29527 18H14.8149C15.0711 18 15.3168 17.9177 15.4979 17.7712C15.679 17.6246 15.7808 17.4259 15.7808 17.2187Z" fill="#732CF5"/>
<g id="Group_2">
<path id="Vector_2" d="M9.5 5C9.10444 5 8.71776 5.1173 8.38886 5.33706C8.05996 5.55682 7.80362 5.86918 7.65224 6.23463C7.50087 6.60008 7.46126 7.00222 7.53843 7.39018C7.6156 7.77814 7.80608 8.13451 8.08579 8.41421C8.36549 8.69392 8.72186 8.8844 9.10982 8.96157C9.49778 9.03874 9.89992 8.99913 10.2654 8.84776C10.6308 8.69638 10.9432 8.44004 11.1629 8.11114C11.3827 7.78224 11.5 7.39556 11.5 7C11.5 6.46957 11.2893 5.96086 10.9142 5.58579C10.5391 5.21071 10.0304 5 9.5 5Z" fill="#A070F8"/>
<path id="Vector_3" d="M17.5 14C18.6046 14 19.5 13.1046 19.5 12C19.5 10.8954 18.6046 10 17.5 10C16.3954 10 15.5 10.8954 15.5 12C15.5 13.1046 16.3954 14 17.5 14Z" fill="#732CF5"/>
</g>
</g>
</svg>
